<svg width="200" height="200" viewBox="0 0 200 200" xmlns="http://www.w3.org/2000/svg">
  <defs>
    <linearGradient id="houseGradient" x1="0%" y1="0%" x2="0%" y2="100%">
      <stop offset="0%" style="stop-color:#4A90E2;stop-opacity:1" />
      <stop offset="100%" style="stop-color:#357ABD;stop-opacity:1" />
    </linearGradient>
    <linearGradient id="roofGradient" x1="0%" y1="0%" x2="0%" y2="100%">
      <stop offset="0%" style="stop-color:#E74C3C;stop-opacity:1" />
      <stop offset="100%" style="stop-color:#C0392B;stop-opacity:1" />
    </linearGradient>
    <linearGradient id="cogGradient" x1="0%" y1="0%" x2="0%" y2="100%">
      <stop offset="0%" style="stop-color:#F39C12;stop-opacity:1" />
      <stop offset="100%" style="stop-color:#E67E22;stop-opacity:1" />
    </linearGradient>
  </defs>
  
  <!-- Background circle -->
  <circle cx="100" cy="100" r="95" fill="#2C3E50" stroke="#34495E" stroke-width="3"/>
  
  <!-- House structure -->
  <!-- Roof -->
  <polygon points="50,85 100,45 150,85" fill="url(#roofGradient)" stroke="#A93226" stroke-width="2"/>
  
  <!-- Main house body -->
  <rect x="60" y="85" width="80" height="70" fill="url(#houseGradient)" stroke="#2980B9" stroke-width="2"/>
  
  <!-- Door -->
  <rect x="85" y="125" width="15" height="30" fill="#8B4513" stroke="#654321" stroke-width="1"/>
  <circle cx="97" cy="140" r="1.5" fill="#FFD700"/>
  
  <!-- Windows -->
  <rect x="70" y="100" width="12" height="12" fill="#FFE4B5" stroke="#D4A574" stroke-width="1"/>
  <line x1="76" y1="100" x2="76" y2="112" stroke="#D4A574" stroke-width="1"/>
  <line x1="70" y1="106" x2="82" y2="106" stroke="#D4A574" stroke-width="1"/>
  
  <rect x="118" y="100" width="12" height="12" fill="#FFE4B5" stroke="#D4A574" stroke-width="1"/>
  <line x1="124" y1="100" x2="124" y2="112" stroke="#D4A574" stroke-width="1"/>
  <line x1="118" y1="106" x2="130" y2="106" stroke="#D4A574" stroke-width="1"/>
  
  <!-- Chimney -->
  <rect x="125" y="55" width="8" height="20" fill="#8B4513" stroke="#654321" stroke-width="1"/>
  <rect x="123" y="55" width="12" height="3" fill="#A0522D"/>
  
  <!-- Large cog wheel (right side) -->
  <g transform="translate(150,130)">
    <circle cx="0" cy="0" r="20" fill="url(#cogGradient)" stroke="#D68910" stroke-width="2"/>
    <!-- Cog teeth -->
    <g>
      <rect x="-2" y="-22" width="4" height="6" fill="url(#cogGradient)"/>
      <rect x="-2" y="16" width="4" height="6" fill="url(#cogGradient)"/>
      <rect x="16" y="-2" width="6" height="4" fill="url(#cogGradient)"/>
      <rect x="-22" y="-2" width="6" height="4" fill="url(#cogGradient)"/>
      
      <rect x="13" y="-15" width="5" height="4" fill="url(#cogGradient)" transform="rotate(45)"/>
      <rect x="13" y="11" width="5" height="4" fill="url(#cogGradient)" transform="rotate(45)"/>
      <rect x="-18" y="-15" width="5" height="4" fill="url(#cogGradient)" transform="rotate(45)"/>
      <rect x="-18" y="11" width="5" height="4" fill="url(#cogGradient)" transform="rotate(45)"/>
    </g>
    <circle cx="0" cy="0" r="6" fill="#2C3E50"/>
  </g>
  
  <!-- Medium cog wheel (left side) -->
  <g transform="translate(40,120)">
    <circle cx="0" cy="0" r="15" fill="url(#cogGradient)" stroke="#D68910" stroke-width="2"/>
    <!-- Cog teeth -->
    <g>
      <rect x="-1.5" y="-17" width="3" height="4" fill="url(#cogGradient)"/>
      <rect x="-1.5" y="13" width="3" height="4" fill="url(#cogGradient)"/>
      <rect x="13" y="-1.5" width="4" height="3" fill="url(#cogGradient)"/>
      <rect x="-17" y="-1.5" width="4" height="3" fill="url(#cogGradient)"/>
      
      <rect x="10" y="-12" width="4" height="3" fill="url(#cogGradient)" transform="rotate(45)"/>
      <rect x="8" y="9" width="4" height="3" fill="url(#cogGradient)" transform="rotate(45)"/>
      <rect x="-14" y="-12" width="4" height="3" fill="url(#cogGradient)" transform="rotate(45)"/>
      <rect x="-14" y="9" width="4" height="3" fill="url(#cogGradient)" transform="rotate(45)"/>
    </g>
    <circle cx="0" cy="0" r="4" fill="#2C3E50"/>
  </g>
  
  <!-- Small cog wheel (top right) -->
  <g transform="translate(160,70)">
    <circle cx="0" cy="0" r="10" fill="url(#cogGradient)" stroke="#D68910" stroke-width="1"/>
    <!-- Cog teeth -->
    <g>
      <rect x="-1" y="-12" width="2" height="3" fill="url(#cogGradient)"/>
      <rect x="-1" y="9" width="2" height="3" fill="url(#cogGradient)"/>
      <rect x="9" y="-1" width="3" height="2" fill="url(#cogGradient)"/>
      <rect x="-12" y="-1" width="3" height="2" fill="url(#cogGradient)"/>
      
      <rect x="7" y="-8" width="3" height="2" fill="url(#cogGradient)" transform="rotate(45)"/>
      <rect x="5" y="6" width="3" height="2" fill="url(#cogGradient)" transform="rotate(45)"/>
      <rect x="-10" y="-8" width="3" height="2" fill="url(#cogGradient)" transform="rotate(45)"/>
      <rect x="-10" y="6" width="3" height="2" fill="url(#cogGradient)" transform="rotate(45)"/>
    </g>
    <circle cx="0" cy="0" r="3" fill="#2C3E50"/>
  </g>
  
  <!-- Connection lines (suggesting automation/connectivity) -->
  <line x1="55" y1="120" x2="130" y2="130" stroke="#95A5A6" stroke-width="2" stroke-dasharray="3,3" opacity="0.7"/>
  <line x1="150" y1="70" x2="150" y2="110" stroke="#95A5A6" stroke-width="2" stroke-dasharray="3,3" opacity="0.7"/>
</svg>
